<svg xmlns="http://www.w3.org/2000/svg" data-name="Слой 1" width="1123" height="118"><rect id="backgroundrect" width="100%" height="100%" x="0" y="0" fill="none" stroke="none"/><g class="currentLayer" style=""><title>Layer 1</title><path d="M-1.1444091807533141e-7,0.000028076171872726263 c2.74,0.12000000000000001 6.1,0.2 10.09,0.26 l12.65,0.17 q6.68,0.09000000000000002 13,0.09000000000000002 H46.86999988555908 v82.76 a48.4,48.4 0 0 0 1.2,12.23 c0.8,2.9 2.17,4.93 4.11,6.07 a15.84,15.84 0 0 0 8,1.71 L52.86999988555908,116.11002807617189 c-3,0 -7,0 -12.06,0.09000000000000002 l-15.9,0.17 l-15.13,0.17 q-6.84,0.09000000000000002 -9.75,0.09000000000000002 q0,-3.7600000000000002 0.3400000000000001,-7.36 a33.81,33.81 0 0 1 1,-6 a16.64,16.64 0 0 0 7.09,-1.8 q2.49,-1.46 3.34,-5.47 a61.52,61.52 0 0 0 0.8500000000000001,-11.88 v-52 a56.27,56.27 0 0 0 -0.8500000000000001,-11.46 a7.6,7.6 0 0 0 -3.34,-5.21 a20.47,20.47 0 0 0 -7.26,-2.14 A34.42,34.42 0 0 1 0.2599998855590817,6.810028076171875 Q0.009999885559081712,2.740028076171882 -1.1444091807533141e-7,0.000028076171872726263 zm75.92,38 c-0.11000000000000001,2.73 -0.25,5.67 -0.42000000000000004,8.8 s-0.26,6.87 -0.26,11.2 q0,7.18 0.26,11.89 c0.17,3.13 0.31000000000000005,6 0.42000000000000004,8.46 q-4.78,0 -8.29,-0.3400000000000001 a26.92,26.92 0 0 1 -6.41,-1.37 q-0.6900000000000002,-7 -3.68,-9.32 t-10.51,-2.31 H37.27999988555908 V52.1600280761719 h9.75 q8.37,0 11,-2.74 t2.83,-9.4 a25.57,25.57 0 0 1 7.09,-1.6300000000000001 C70.75999988555908,38.110028076171886 73.41999988555908,37.9700280761719 75.91999988555908,37.9700280761719 zm16.59,-38 q0.17,4.28 0.6000000000000001,9.92 t1.2,11 a94.91,94.91 0 0 0 1.79,9.49 A61.71,61.71 0 0 1 88.86999988555908,32.58002807617186 a44.6,44.6 0 0 1 -10,0.9400000000000001 A36.7,36.7 0 0 0 75.49999988555908,22.810028076171875 a16.09,16.09 0 0 0 -7,-7 q-4.71,-2.47 -13.26,-2.48 H39.32999988555908 l5.8100000000000005,-12.82 q12.82,0 21.55,-0.09000000000000002 t14.88,-0.17 C85.66999988555908,0.20002807617186136 89.31999988555908,0.12002807617187727 92.50999988555908,0.000028076171872726263 zm-7.18,80 a45.13,45.13 0 0 1 10.43,2.14 a19.73,19.73 0 0 1 7,3.68 a99.23,99.23 0 0 0 -3.25,14 q-1.37,8.2 -2.05,16.58 q-5,-0.17 -12.74,-0.17 t-16.24,-0.08000000000000002 q-8.48,-0.09000000000000002 -15.65,-0.09000000000000002 l7.35,-12.82 h2.91 a19.79,19.79 0 0 0 10,-2.4 a19.32,19.32 0 0 0 7.1,-7.52 A58.17,58.17 0 0 0 85.32999988555908,80.0300280761719 z" id="svg_1" class=""/><path d="M154.5799998855591,75.59002807617185 l-8.89,13.51 Q140.55999988555908,96.96002807617185 139.86999988555908,99.81002807617188 t1.71,3.51 a21.27,21.27 0 0 1 1.19,5.9 c0.12000000000000001,2 0.18000000000000002,4.42 0.18000000000000002,7.26 c-2.29,-0.22000000000000003 -5.05,-0.3400000000000001 -8.3,-0.3400000000000001 H116.78999988555908 a62.11,62.11 0 0 0 -7.18,0.3400000000000001 a48.08,48.08 0 0 1 0.51,-7.26 a27.51,27.51 0 0 1 1.54,-5.9 a9.76,9.76 0 0 0 4.53,-1.37 a22.4,22.4 0 0 0 5,-4.87 q3,-3.67 8.13,-11.55 L140.86999988555908,68.06002807617188 zm-5,15 c-1.1400000000000001,-1.9300000000000002 -2,-3.36 -2.47,-4.27 a43.57,43.57 0 0 0 -3.17,-4.45 l-5.3,-1 q-3.59,-6.68 -7.87,-13.17 t-8.2,-11.46 a14.870000000000001,14.870000000000001 0 0 0 -2.8200000000000003,-3 a12.41,12.41 0 0 0 -3.34,-1.79 a16.4,16.4 0 0 0 -4.62,-0.8600000000000001 a46.45,46.45 0 0 1 -1.36,-6.41 a45.65,45.65 0 0 1 -0.52,-6.76 q5.3,0.18000000000000002 12.4,0.26 t14.45,0.08000000000000002 q7.51,0 15.22,-0.08000000000000002 t13.34,-0.26 c0,2.17 -0.12000000000000001,4.5600000000000005 -0.35000000000000003,7.19 a28.18,28.18 0 0 1 -1,6 c-2.4,0.11000000000000001 -3.62,0.8800000000000001 -3.68,2.31 s1.23,4.19 3.85,8.29 q1.8800000000000001,2.91 3.33,5.13 c1,1.48 2,3.31 3.17,5.47 l6.84,1.8800000000000001 c1.71,2.51 3.3,4.88 4.79,7.1 s2.9,4.48 4.27,6.76 q3.7600000000000002,6 6.24,9.23 a16.36,16.36 0 0 0 4.79,4.53 a14.14,14.14 0 0 0 5.39,1.6300000000000001 a27.55,27.55 0 0 1 1.45,6 a56.23,56.23 0 0 1 0.43000000000000005,7.18 a60.47,60.47 0 0 0 -7.7,-0.17 c-2.51,0.12000000000000001 -6.1,0.17 -10.77,0.17 H166.5499998855591 q-5.640000000000001,0 -10.34,0.09000000000000002 c-3.14,0.05000000000000001 -5.5,0.14 -7.1,0.25 a56.9,56.9 0 0 1 0.43000000000000005,-7.6 a38.68,38.68 0 0 1 1.11,-5.5600000000000005 c1.94,-0.46 3,-1.51 3.08,-3.17 S152.46999988555908,95.31002807617188 149.61999988555908,90.63002807617187 zm14,-17.1 l8.38,-12.65 q3.75,-5.640000000000001 3.93,-7.61 c0.11000000000000001,-1.31 -0.8600000000000001,-2.19 -2.91,-2.6500000000000004 a31.89,31.89 0 0 1 -1.37,-5.9 a50.38,50.38 0 0 1 -0.51,-7.27 c3,0.12000000000000001 5.76,0.2 8.38,0.26 s5.640000000000001,0.08000000000000002 9.06,0.08000000000000002 s6.13,0 8.12,-0.08000000000000002 s4.3100000000000005,-0.14 6.93,-0.26 a52.88,52.88 0 0 1 -0.43000000000000005,7 a30.27,30.27 0 0 1 -1.45,6.16 a11.64,11.64 0 0 0 -4.19,0.9400000000000001 a10.59,10.59 0 0 0 -3.33,2.74 a54,54 0 0 0 -4.28,5.9 l-14.19,21.2 z" id="svg_2" class=""/><path d="M250.33999988555908,117.65002807617185 q-13.5,0 -20.52,-7 t-7,-24.28 V55.070028076171866 a22,22 0 0 0 -5.8100000000000005,-1.6300000000000001 a52.18,52.18 0 0 0 -7,-0.43000000000000005 a44.78,44.78 0 0 1 0.51,-7.09 a28.22,28.22 0 0 1 1.8800000000000001,-6.42 h10.43 V19.810028076171875 a65.86,65.86 0 0 0 15.22,-3.59 a41.71,41.71 0 0 0 11.8,-6.16 a7.48,7.48 0 0 1 4.27,3.68 c0.8,1.6500000000000001 1.2,4.42 1.2,8.29 v17.44 h20 a58.58,58.58 0 0 1 -0.43000000000000005,7.61 a41.42,41.42 0 0 1 -1.28,6.08 a59.09,59.09 0 0 0 -9.83,0.7600000000000001 a43.62,43.62 0 0 0 -8.47,2.31 V84.31002807617188 a67,67 0 0 0 0.77,11.8 q0.7600000000000001,3.93 2.5700000000000003,5.3 a7.54,7.54 0 0 0 4.7,1.36 a26.63,26.63 0 0 0 4.79,-0.51 a27.67,27.67 0 0 0 5,-1.37 q2.56,3.7600000000000002 2.56,10.95 A32.53,32.53 0 0 1 264.8699998855591,116.0300280761719 A64.42,64.42 0 0 1 250.33999988555908,117.65002807617185 z" id="svg_3" class=""/><path d="M327.9699998855591,82.43002807617188 a32.82,32.82 0 0 0 1.71,11.71 a12.13,12.13 0 0 0 5.73,6.5 q4,2.13 11.2,2.6500000000000004 a22.87,22.87 0 0 1 1.29,6.41 q0.25,3.67 0.25,6.93 c-2.17,-0.12000000000000001 -5,-0.2 -8.46,-0.26 l-11,-0.17 q-5.82,-0.09000000000000002 -11.29,-0.09000000000000002 q-9.22,0 -18.89,0.09000000000000002 t-15.65,0.43000000000000005 q0,-4.62 0.26,-7.78 a28.54,28.54 0 0 1 0.9400000000000001,-5.5600000000000005 a16.64,16.64 0 0 0 7.09,-1.8 c1.6500000000000001,-1 2.8,-2.79 3.42,-5.47 a55.79,55.79 0 0 0 0.9400000000000001,-11.88 v-6.84 H327.9699998855591 zm-32.49,-1.2 V69.94002807617187 a43.06,43.06 0 0 0 -0.6800000000000002,-8.72 a6.6,6.6 0 0 0 -3.25,-4.53 c-1.71,-1 -4.44,-1.62 -8.21,-2 a52.75,52.75 0 0 1 0.43000000000000005,-6.66 a18.59,18.59 0 0 1 1.8,-6.16 a127.28,127.28 0 0 0 22.57,-1.8 c6.61,-1.19 11.28,-2.48 14,-3.84 a8.47,8.47 0 0 1 4.36,3.84 a14.81,14.81 0 0 1 1.45,7.1 zm32.49,-15.73 v15.73 H295.4799998855591 V62.810028076171875 l32.49,-15.56 a33.33,33.33 0 0 1 -0.8500000000000001,6.75 q-0.8600000000000001,4 -2.5700000000000003,11.2 zm-3.7600000000000002,0.17 c0.6900000000000002,-2.05 1.6,-4.68 2.74,-7.87 a44.63,44.63 0 0 1 2.91,-6.84 a33.05,33.05 0 0 1 9.57,-9.92 a22.15,22.15 0 0 1 12.66,-3.93 a21.55,21.55 0 0 1 12.65,4.1 q-0.6900000000000002,3.94 -1.2,9.15 T362.8699998855591,60.810028076171875 a83,83 0 0 0 0.17,9.49 a27.1,27.1 0 0 1 -9,2 q-5.55,0.44000000000000006 -9.15,0.43000000000000005 c-0.11000000000000001,-3.7600000000000002 -0.6800000000000002,-6.53 -1.71,-8.29 a5.3,5.3 0 0 0 -5,-2.66 c-1.48,0 -3,0.92 -4.61,2.74 a23,23 0 0 0 -4,6.93 a24.43,24.43 0 0 0 -1.6300000000000001,9 z" id="svg_4" class=""/><path d="M418.9399998855591,83.81002807617188 a66.57,66.57 0 0 0 0.8600000000000001,12.49 c0.5700000000000001,2.73 1.71,4.5600000000000005 3.42,5.47 a17.66,17.66 0 0 0 7.52,1.54 a33.41,33.41 0 0 1 1.11,6.41 c0.18000000000000002,2.22 0.26,4.53 0.26,6.93 c-1.71,-0.12000000000000001 -4,-0.2 -6.75,-0.26 l-8.81,-0.17 q-4.62,-0.09000000000000002 -8.46,-0.09000000000000002 H396.45999988555906 q-4,0 -8.47,0.09000000000000002 c-3,0.05000000000000001 -5.76,0.11000000000000001 -8.38,0.17 s-4.73,0.14 -6.32,0.26 q0,-3.7600000000000002 0.3400000000000001,-7.36 a34.85,34.85 0 0 1 1,-6 a26,26 0 0 0 7.7,-2.23 q2.56,-1.37 3.33,-5.21 a64.41,64.41 0 0 0 0.77,-11.71 V61.73002807617189 a52,52 0 0 0 -0.9400000000000001,-11.620000000000001 c-0.6300000000000001,-2.51 -1.79,-4.22 -3.5,-5.13 a17.28,17.28 0 0 0 -7.36,-1.54 a58.8,58.8 0 0 1 -1,-6.24 a66.14,66.14 0 0 1 -0.3400000000000001,-7.1 c1.36,0.11000000000000001 3.39,0.2 6.07,0.26 l8.63,0.17 c3.08,0.06000000000000001 6,0.08000000000000002 8.64,0.08000000000000002 h6.07 c2.39,0 5.5600000000000005,0 9.49,-0.08000000000000002 l11.54,-0.17 c3.7600000000000002,-0.06000000000000001 6.5600000000000005,-0.15000000000000002 8.38,-0.26 c0,2.51 -0.08000000000000002,4.85 -0.26,7 a33.27,33.27 0 0 1 -1.11,6.33 a17.23,17.23 0 0 0 -7.35,1.54 Q420.8699998855591,46.350028076171895 419.8699998855591,50.110028076171886 a52.62,52.62 0 0 0 -0.9400000000000001,11.620000000000001 z" id="svg_5" class=""/><path d="M443.56999988555907,116.63002807617187 a70.09,70.09 0 0 1 0.3400000000000001,-7 a23.84,23.84 0 0 1 1.37,-6.15 q7,-0.51 9,-3.51 t2,-11.54 V72.51002807617186 a60.44,60.44 0 0 0 -0.6900000000000002,-10.6 a7.12,7.12 0 0 0 -3.24,-5.13 c-1.71,-1 -4.51,-1.71 -8.38,-2.06 a40.65,40.65 0 0 1 0.51,-6.32 a28,28 0 0 1 1.8800000000000001,-6.5 q7.19,0 14.19,-0.6900000000000002 a115.55,115.55 0 0 0 13,-2 a40.89,40.89 0 0 0 9.4,-3 a7.25,7.25 0 0 1 4.11,3.42 a14.12,14.12 0 0 1 1.71,7.52 a23.72,23.72 0 0 1 -1,6.75 q-1,3.51 -3.42,11.55 h-0.8500000000000001 q3.58,-9.06 5.73,-13.17 a25.17,25.17 0 0 1 4.19,-6.16 a33.51,33.51 0 0 1 10.26,-6.92 a31.24,31.24 0 0 1 12.82,-2.6500000000000004 a31.67,31.67 0 0 1 15.22,3.5 a25.74,25.74 0 0 1 10.09,9.49 a16.75,16.75 0 0 1 2.91,8.9 h-1 q3.59,-9.24 8,-13 a27.67,27.67 0 0 1 9.14,-5.8100000000000005 a31.28,31.28 0 0 1 11.55,-2.06 q9.91,0 16.41,3.08 a20.77,20.77 0 0 1 9.84,9.66 q3.33,6.58 3.33,17.36 v12.48 q0,10.26 0.43000000000000005,15.05 c0.28,3.19 0.9400000000000001,5.27 2,6.24 s2.74,1.57 5.14,1.8 a27.43,27.43 0 0 1 1.36,6.32 a70.09,70.09 0 0 1 0.3400000000000001,7 c-3.07,-0.23 -6.72,-0.38000000000000006 -10.94,-0.43000000000000005 s-8.55,-0.09000000000000002 -13,-0.09000000000000002 q-4.44,0 -9.66,0.09000000000000002 l-10,0.17 c-3.19,0.06000000000000001 -5.8100000000000005,0.14 -7.87,0.26 a62.55,62.55 0 0 1 0.35000000000000003,-7.19 c0.22000000000000003,-1.9300000000000002 0.5700000000000001,-4 1,-6.15 a7.75,7.75 0 0 0 4.79,-1.8 q1.8800000000000001,-1.62 2.74,-6.24 a79.52,79.52 0 0 0 0.8500000000000001,-13.34 v-7.69 q0,-10.1 -2.39,-13.6 a7.49,7.49 0 0 0 -6.5,-3.5 a11.69,11.69 0 0 0 -8.38,3.25 a20,20 0 0 0 -5.13,9.23 a51.33,51.33 0 0 0 -1.71,14 v3.77 q0,8.71 1.6300000000000001,12.14 t6.92,3.7600000000000002 a27.78,27.78 0 0 1 1.28,6.07 a61.75,61.75 0 0 1 0.43000000000000005,7.27 c-2.62,-0.23 -6.39,-0.38000000000000006 -11.29,-0.43000000000000005 s-9.8,-0.09000000000000002 -14.7,-0.09000000000000002 s-9.83,0 -14.79,0.09000000000000002 s-9,0.2 -12.06,0.43000000000000005 a59.79,59.79 0 0 1 0.43000000000000005,-7.19 a31.05,31.05 0 0 1 1.28,-6.15 a10.48,10.48 0 0 0 5.47,-1.8 c1.26,-1 2.11,-3.08 2.5700000000000003,-6.32 a119.66,119.66 0 0 0 0.6800000000000002,-15 v-7.86 q0,-8.55 -2.39,-11.89 c-1.6,-2.22 -4.16,-3.33 -7.7,-3.33 a9.85,9.85 0 0 0 -7.52,3.59 a24.51,24.51 0 0 0 -5.05,9.66 a46.81,46.81 0 0 0 -1.79,13.25 v3.77 q0,9.41 1.54,12.48 c1,2.05 3.25,3.19 6.67,3.42 a24.75,24.75 0 0 1 1.36,6.24 c0.23,2.34 0.35000000000000003,4.7 0.35000000000000003,7.1 a70.16,70.16 0 0 0 -7.7,-0.43000000000000005 q-5.13,-0.09000000000000002 -10.69,-0.09000000000000002 H460.7499998855591 q-5.38,0 -10.09,0.09000000000000002 A59.93,59.93 0 0 0 443.56999988555907,116.63002807617187 z" id="svg_6" class=""/><path d="M694.0799998855591,13.340028076171848 a20.53,20.53 0 0 0 -10.35,2.4 a18.12,18.12 0 0 0 -6.84,7.18 a51,51 0 0 0 -4.53,12.31 c-3.19,0 -6.33,-0.14 -9.4,-0.43000000000000005 a23.77,23.77 0 0 1 -8.21,-2.14 A124.59,124.59 0 0 0 657.8699998855591,16.42002807617189 a129,129 0 0 0 1.2,-16.42 l14.2,0.35000000000000003 q7,0.16000000000000003 16.24,0.17 h23.09 q12.3,0 21.46,-0.09000000000000002 t16.58,-0.17 q7.44,-0.09000000000000002 14.45,-0.26 a128.85,128.85 0 0 0 1.11,16 a145.58,145.58 0 0 0 3,16.5 a35.89,35.89 0 0 1 -8,2.06 a66.85,66.85 0 0 1 -9.83,0.6800000000000002 q-2.22,-11.620000000000001 -6.41,-16.76 t-12.91,-5.13 zm0.3400000000000001,-6.84 h34.2 v77.64 q0,7.86 1.28,11.88 a8.25,8.25 0 0 0 4.88,5.47 q3.58,1.45 10.6,1.8 a25.43,25.43 0 0 1 1.28,6.07 a67.21,67.21 0 0 1 0.43000000000000005,7.27 q-4.8,-0.35000000000000003 -13.6,-0.43000000000000005 t-19.75,-0.09000000000000002 q-7.18,0 -15,0.09000000000000002 t-14.28,0.17 c-4.33,0.06000000000000001 -7.75,0.14 -10.26,0.26 a41.15,41.15 0 0 1 0.6900000000000002,-7 a64.09,64.09 0 0 1 1.36,-6.32 a38.83,38.83 0 0 0 11.12,-1.8 a9,9 0 0 0 5.47,-5.47 q1.54,-4 1.54,-11.88 z" id="svg_7" class=""/><path d="M807.1099998855591,117.65002807617185 q-16.43,0 -26.42,-5.21 a33,33 0 0 1 -14.620000000000001,-14.2 A44,44 0 0 1 761.4499998855591,77.81002807617188 q0,-13.17 5.3,-22.4 A35.37,35.37 0 0 1 781.8699998855591,41.21002807617185 q9.83,-4.95 23,-4.95 q13.34,0 22,4.61 a29.87,29.87 0 0 1 12.91,13.08 a44.93,44.93 0 0 1 4.45,19.75 A19.52,19.52 0 0 1 838.5699998855591,83.81002807617188 q-5.640000000000001,0 -12.14,0.09000000000000002 l-13.34,0.17 q-6.84,0.09000000000000002 -13.68,0.43000000000000005 t-13.16,0.8500000000000001 V71.81002807617188 h29.75 q0,-11.620000000000001 -2.6500000000000004,-17.27 t-8,-5.640000000000001 A8.53,8.53 0 0 0 798.8699998855591,51.810028076171875 a18.44,18.44 0 0 0 -3.94,8.2 a53.93,53.93 0 0 0 -1.28,12.49 A48.16,48.16 0 0 0 795.8699998855591,88.24002807617188 a19.8,19.8 0 0 0 7.35,10.17 q5,3.51 13.25,3.51 A42.12,42.12 0 0 0 828.8699998855591,100.0400280761719 a33.28,33.28 0 0 0 9.91,-4.62 a9.4,9.4 0 0 1 3.25,4.62 a19.18,19.18 0 0 1 1.37,7.18 A61,61 0 0 1 827.6299998855591,114.81002807617188 A66.86,66.86 0 0 1 807.1099998855591,117.65002807617185 z" id="svg_8" class=""/><path d="M915.0099998855591,117.65002807617185 A9,9 0 0 1 909.8699998855591,113.81002807617188 a12,12 0 0 1 -1.37,-5.9 a36.72,36.72 0 0 1 0.6000000000000001,-6.07 a39,39 0 0 1 1.79,-6.75 l0.6900000000000002,-1 a43.29,43.29 0 0 1 -4.45,10.26 a25.82,25.82 0 0 1 -5.8100000000000005,6.67 a25.37,25.37 0 0 1 -9.32,4.79 a43.7,43.7 0 0 1 -12.06,1.54 q-12.14,0 -19.15,-5 t-7,-15 a20.88,20.88 0 0 1 2.91,-11.2 a25.56,25.56 0 0 1 8.12,-8 a51.45,51.45 0 0 1 11.8,-5.47 a110,110 0 0 1 14,-3.5 q7.44,-1.36 15,-2.4 a48,48 0 0 0 -0.3400000000000001,-6 a26.75,26.75 0 0 0 -1.11,-5 a10.14,10.14 0 0 0 -2.48,-4 a9.92,9.92 0 0 0 -4.27,-2.83 a14.69,14.69 0 0 0 -4.45,-0.7600000000000001 a9,9 0 0 0 -6.41,2.3 a15,15 0 0 0 -3.85,6.5 a51.92,51.92 0 0 0 -2.05,9.83 q-6,0 -10.26,-0.3400000000000001 a30.62,30.62 0 0 1 -8.38,-1.8800000000000001 c0.23,-3.3 0.31000000000000005,-6.72 0.26,-10.26 a63.26,63.26 0 0 0 -1.46,-11.8 A92.21,92.21 0 0 1 878.929999885559,37.810028076171875 a130.06,130.06 0 0 1 20.52,-1.71 q13,0 20.18,2.6500000000000004 t10.6,6.08 a26.84,26.84 0 0 1 5.47,9.14 q2.4,6.08 2.39,18.39 v11.28 a46.94,46.94 0 0 0 0.6900000000000002,9.32 c0.45,2.11 1.37,3.51 2.73,4.19 a15.61,15.61 0 0 0 6.16,1.2 a24,24 0 0 1 0.26,7.18 a16.45,16.45 0 0 1 -2.14,6.33 a104.6,104.6 0 0 0 -15.73,1.54 A73.27,73.27 0 0 0 915.0099998855591,117.65002807617185 zm-23.26,-19 a11.67,11.67 0 0 0 6.42,-2.05 a15.92,15.92 0 0 0 5.3,-6.16 a21.28,21.28 0 0 0 2.13,-9.92 v-2.9 a68.58,68.58 0 0 0 -9.74,2.6500000000000004 a25,25 0 0 0 -6.24,3.16 a9.92,9.92 0 0 0 -3.25,3.7600000000000002 a10.51,10.51 0 0 0 -0.9400000000000001,4.45 c0,2.51 0.6200000000000001,4.3 1.8800000000000001,5.39 A6.57,6.57 0 0 0 891.7499998855591,98.67002807617189 z" id="svg_9" class=""/><path d="M955.6999998855591,116.63002807617187 a70.05,70.05 0 0 1 0.35000000000000003,-7 a24.27,24.27 0 0 1 1.36,-6.15 q7,-0.51 9,-3.51 t2,-11.54 V72.51002807617186 a61.65,61.65 0 0 0 -0.6800000000000002,-10.6 a7.16,7.16 0 0 0 -3.25,-5.13 c-1.71,-1 -4.51,-1.71 -8.38,-2.06 a40.65,40.65 0 0 1 0.51,-6.32 a28,28 0 0 1 1.8800000000000001,-6.5 q7.18,0 14.19,-0.6900000000000002 a115.55,115.55 0 0 0 13,-2 a40.89,40.89 0 0 0 9.4,-3 a7.25,7.25 0 0 1 4.11,3.42 a14.12,14.12 0 0 1 1.71,7.52 a23.72,23.72 0 0 1 -1,6.75 q-1,3.51 -3.42,11.55 h-0.8500000000000001 q3.59,-9.06 5.73,-13.17 a25.17,25.17 0 0 1 4.19,-6.16 a33.51,33.51 0 0 1 10.26,-6.92 a31.24,31.24 0 0 1 12.82,-2.6500000000000004 a31.67,31.67 0 0 1 15.22,3.5 a25.74,25.74 0 0 1 10.09,9.49 a16.75,16.75 0 0 1 2.91,8.9 h-1 q3.59,-9.24 8,-13 a27.62,27.62 0 0 1 9.15,-5.8100000000000005 a31.19,31.19 0 0 1 11.54,-2.06 q9.92,0 16.41,3.08 a20.77,20.77 0 0 1 9.84,9.66 q3.33,6.58 3.33,17.36 v12.48 q0,10.26 0.43000000000000005,15.05 c0.28,3.19 0.9400000000000001,5.27 2,6.24 s2.74,1.57 5.13,1.8 a26.91,26.91 0 0 1 1.37,6.32 a70.09,70.09 0 0 1 0.3400000000000001,7 c-3.07,-0.23 -6.72,-0.38000000000000006 -10.94,-0.43000000000000005 s-8.55,-0.09000000000000002 -13,-0.09000000000000002 q-4.45,0 -9.67,0.09000000000000002 l-10,0.17 c-3.19,0.06000000000000001 -5.8100000000000005,0.14 -7.87,0.26 a62.55,62.55 0 0 1 0.35000000000000003,-7.19 c0.22000000000000003,-1.9300000000000002 0.5700000000000001,-4 1,-6.15 a7.75,7.75 0 0 0 4.79,-1.8 q1.8800000000000001,-1.62 2.74,-6.24 a78.46,78.46 0 0 0 0.8500000000000001,-13.34 v-7.69 q0,-10.1 -2.39,-13.6 a7.51,7.51 0 0 0 -6.5,-3.5 a11.69,11.69 0 0 0 -8.38,3.25 a20,20 0 0 0 -5.13,9.23 a51.33,51.33 0 0 0 -1.71,14 v3.77 q0,8.71 1.62,12.14 t6.93,3.7600000000000002 a27.78,27.78 0 0 1 1.28,6.07 a61.75,61.75 0 0 1 0.43000000000000005,7.27 c-2.62,-0.23 -6.39,-0.38000000000000006 -11.29,-0.43000000000000005 s-9.8,-0.09000000000000002 -14.7,-0.09000000000000002 s-9.83,0 -14.79,0.09000000000000002 s-9,0.2 -12.06,0.43000000000000005 a59.79,59.79 0 0 1 0.43000000000000005,-7.19 a31.05,31.05 0 0 1 1.28,-6.15 a10.48,10.48 0 0 0 5.47,-1.8 c1.26,-1 2.11,-3.08 2.5700000000000003,-6.32 a119.66,119.66 0 0 0 0.6800000000000002,-15 v-7.86 q0,-8.55 -2.39,-11.89 c-1.6,-2.22 -4.16,-3.33 -7.7,-3.33 a9.85,9.85 0 0 0 -7.52,3.59 a24.51,24.51 0 0 0 -5.05,9.66 a46.81,46.81 0 0 0 -1.79,13.25 v3.77 q0,9.41 1.54,12.48 c1,2.05 3.25,3.19 6.67,3.42 a25.18,25.18 0 0 1 1.37,6.24 c0.22000000000000003,2.34 0.3400000000000001,4.7 0.3400000000000001,7.1 a70.16,70.16 0 0 0 -7.7,-0.43000000000000005 q-5.13,-0.09000000000000002 -10.69,-0.09000000000000002 H972.8699998855591 q-5.38,0 -10.09,0.09000000000000002 A60.28,60.28 0 0 0 955.6999998855591,116.63002807617187 z" id="svg_10" class=""/></g></svg>