<svg xmlns="http://www.w3.org/2000/svg" xmlns:xlink="http://www.w3.org/1999/xlink" version="1.1" style="" xml:space="preserve" width="1197" height="84"><rect id="backgroundrect" width="100%" height="100%" x="0" y="0" fill="none" stroke="none"/>

<g class="currentLayer" style=""><title>Layer 1</title><g id="svg_1" class="">
	<path d="M94.80000019073486,62.000030517578125 l-16.2,21 H1.9073486345888568e-7 v-81.6 h94.5 l-16.3,21.2 H25.400000190734865 v9.8 h64.7 l-14.5,18.5 H25.400000190734865 V62.000030517578125 H94.80000019073486 z" id="svg_2"/>
	<path d="M219.30000019073486,1.4000305175781023 l-25.7,23.5 c-11.3,10.2 -15.1,13.5 -18.2,15.9 c2.9,2 6.6,5.4 19.8,17.7 L221.30000019073486,83.00003051757812 h-35.6 l-27.8,-27 l-28.7,27 h-31.4 l26.6,-24.5 c12.4,-11.5 16,-14.4 19,-16.7 c-3,-2.2 -6.2,-5 -19,-17 l-25,-23.4 h35 l26,25.4 l26.2,-25.4 H219.30000019073486 z" id="svg_3"/>
	<path d="M326.50000019073485,1.4000305175781023 l-16.3,21.2 h-29.2 V83.00003051757812 h-25.3 v-60.4 h-38.3 l16.3,-21.2 H326.50000019073485 z" id="svg_4"/>
	<path d="M441.70000019073484,83.00003051757812 h-33.8 l-18.2,-21.6 h-38.8 V83.00003051757812 h-25.3 v-41.7 h71 c7.8,0 13.9,-3.5 13.9,-9.1 c0,-6.3 -5.2,-9.5 -13.9,-9.5 h-71 l16.5,-21.2 h52.5 c18.5,0 42,5.9 42,29.2 c0,12.7 -7.9,23.2 -21.3,25.9 c2.8,2.1 5.9,5 11.5,10.7 L441.70000019073484,83.00003051757812 z" id="svg_5"/>
	<path d="M459.80000019073486,1.4000305175781023 h29.9 V83.00003051757812 h-25.3 v-60.4 h-19.9 L459.80000019073486,1.4000305175781023 z" id="svg_6"/>
	<path d="M561.5000001907349,31.800030517578136 c7.2,12.6 10.4,18.7 13.2,24.4 c2.7,-5.7 5.9,-11.7 13.1,-24.3 l13.1,-23.2 c2.9,-5.2 7.3,-8.7 13.9,-8.7 c6.3,0 12,3.7 14.2,11.2 l20.6,71.7 h-25.1 l-7.7,-28.4 c-2.6,-9.3 -4.3,-15.9 -5.6,-22.4 c-2.7,5.7 -5.7,12 -11.3,22.6 l-11,20.5 c-4.3,8.1 -8.4,9.1 -14.5,9.1 s-10.2,-1.1 -14.5,-9.1 l-11,-20.6 c-6,-11.2 -8.9,-17 -11.5,-22.4 c-1.2,6.5 -3,13.3 -5.5,22.4 l-7.7,28.4 H499.30000019073486 l21.1,-71.7 c2.2,-7.6 7.9,-11.2 14.3,-11.2 c6.5,0 10.9,3.3 13.8,8.7 L561.5000001907349,31.800030517578136 z" id="svg_7"/>
	<path d="M806.9000001907349,1.4000305175781023 l-16.3,21.2 h-29.2 V83.00003051757812 h-25.3 v-60.4 h-38.3 l16.3,-21.2 H806.9000001907349 z" id="svg_8"/>
	<path d="M909.4000001907349,62.000030517578125 l-16.2,21 h-78.6 v-81.6 h94.5 l-16.3,21.2 h-52.8 v9.8 h64.7 l-14.5,18.5 h-50.1 V62.000030517578125 H909.4000001907349 z" id="svg_9"/>
	<path d="M948.4000001907349,83.00003051757812 l15.2,-21 h20.5 c4.9,0 10.6,0 14.5,0.2 c-2.2,-2.9 -5.6,-7.9 -8.3,-11.8 l-14.6,-21.6 L937.4000001907349,83.00003051757812 h-29.9 l52.3,-73.8 c3.4,-4.8 8.4,-9.1 16.3,-9.1 c7.6,0 12.6,4 16.1,9.1 l51,73.8 H948.4000001907349 z" id="svg_10"/>
	<path d="M1108.700000190735,31.800030517578136 c7.2,12.6 10.4,18.7 13.2,24.4 c2.7,-5.7 5.9,-11.7 13.1,-24.3 l13.1,-23.2 c2.9,-5.2 7.3,-8.7 13.9,-8.7 c6.3,0 12,3.7 14.2,11.2 l20.6,71.7 h-25.1 l-7.7,-28.4 c-2.6,-9.3 -4.3,-15.9 -5.6,-22.4 c-2.7,5.7 -5.7,12 -11.3,22.6 l-11,20.5 c-4.3,8.1 -8.4,9.1 -14.5,9.1 s-10.2,-1.1 -14.5,-9.1 l-11,-20.6 c-6,-11.2 -8.9,-17 -11.5,-22.4 c-1.2,6.5 -3.1,13.3 -5.5,22.4 L1071.3000001907349,83.00003051757812 h-24.8 l21.1,-71.7 c2.2,-7.6 7.9,-11.2 14.3,-11.2 c6.5,0 10.9,3.3 13.8,8.7 L1108.700000190735,31.800030517578136 z" id="svg_11"/>
</g></g></svg>